<?xml version="1.0" encoding="utf-8"?>
<!-- Generator: Adobe Illustrator 19.2.1, SVG Export Plug-In . SVG Version: 6.00 Build 0)  -->
<svg version="1.1" id="poseidon" xmlns="http://www.w3.org/2000/svg" xmlns:xlink="http://www.w3.org/1999/xlink" x="0px" y="0px"
	 viewBox="0 0 512 512" style="enable-background:new 0 0 512 512;" xml:space="preserve">
<style type="text/css">
	.st0{fill:#000000;stroke:#000000;stroke-miterlimit:10;}
	.st1{fill:#000000;stroke:#000000;stroke-miterlimit:10;}
</style>

<path id="face" class="st0" d="M418.1,211.3l-44.6-85.5l25.8-56.3l-23.6-10.2l-8.8,19.2l-85.7-21.4l-2.5-37.3h-1.3h-40.8h-1.3
	l-2.5,37.3l-85.7,21.4l-8.8-19.2l-23.6,10.2l25.8,56.3l0,0l-44.6,85.5l11,22.3l-8.2,15.8l30.6,84.5v0l63.4,79.5L257,494l64.3-80.6
	l63.4-79.5l30.6-84.5l-8.2-15.8L418.1,211.3z M402.5,226l-45.4-91L346,122.2l21,2.9l42.1,84.3L402.5,226z M286.6,186.4l17.4-5.3
	l30,8.9l-23.7,12.8L286.6,186.4z M305.4,175.2l-18.8,4.4l-9.2-4.4l-3.3-6.9h14.5l13.5-8.9l36.5,24.7L305.4,175.2z M334.4,161.4
	l-43.1-30l4.9,14.2l-17.8,8.6l-18.8-5.9l5.6,18.4l-4.9-1.3l7.9,11.9l18.1,45.4v0v-25l38.2,23.7l-5.9-12.5l13.8-6.9l13.2,23.4
	L311,253.9l-1.3,11.5l-2.6,0.3l-8.2-27.7l-20.1-6.9l-0.3,8.9l9.2,5.3l1.3,12.2L257,271l-31.9-13.5l1.3-12.2l9.2-5.3l-0.3-8.9l0,0
	l-20.1,6.9l-8.2,27.7l-2.6-0.3l-1.3-11.5l-34.6-28.6l13.2-23.4l13.8,6.9l-5.9,12.5l0,0l38.2-23.7v25v0v0l18.1-45.4l7.9-11.9l0,0
	l-4.9,1.3l5.6-18.4l0,0l-18.8,5.9l-17.8-8.6l4.9-14.2l0,0l0,0l-43.1,30l-11.9-18.4l35.5-25.7l49.8-6.9V96.5h7.9v13.8l49.8,6.9
	l35.5,25.7L334.4,161.4z M175.1,121.4l16.1-2.5l-27.4,20l-2.9-1.6L175.1,121.4z M178.2,322.2l46.2-56.8l32.6,15.1l32.6-15.1
	l46.2,56.8L257,452.6L178.2,322.2z M225.4,168.3L225.4,168.3h14.5l-3.3,6.9l-9.2,4.4l-18.8-4.4l0,0l-16.6,4.4l-16.6,4.4l36.5-24.7
	L225.4,168.3z M227.4,186.4l-23.7,16.5L180,190l30-8.9L227.4,186.4z M322.8,118.9l14.8,2.5l14.8,15.9l-2.2,1.6L322.8,118.9z
	 M259.6,38.9l1.4,45.2H253l1.4-45.2C254.4,38.9,259.6,38.9,259.6,38.9z M156.9,135l-45.4,91l-6.6-16.6l42.1-84.3l21-2.9
	 M148.2,175.5L148.2,175.5L148.2,175.5l15,19.8L141.8,246l-12.5,62.9l-21.1-61.4L148.2,175.5z M257,476.4L137.2,327.9l16.5-76.4
	l31.6,40.8L165.8,322L257,466.5L348.2,322l-19.4-29.6l31.6-40.8l16.5,76.4L257,476.4z M384.7,308.8L384.7,308.8L372.2,246
	l-21.4-50.7l15-19.8l0,0l0,0l40,71.9L384.7,308.8z"/>
<path id="beard" class="st1" d="M257,297l-28.6,4.3l-27.7,23L256.4,432l55.3-109.6l-26-21.1L257,297z M257,301.6l22,6.3l-0.7,5.9
	l-21.4-4.6l-21.4,4.6l-0.7-5.9L257,301.6z M272.5,337.1l-16.3,51.4l-14.6-51.4l15.5-14.9L272.5,337.1z M303.3,324.3l-46.9,95.1
	l-45.6-95.1l17.1-13l3.8,12.4l17.4-5.9l-19.4,16.8l26.5,72.4l28.1-72.4l-19.4-16.8l17.4,5.9l3.8-12.4L303.3,324.3z"/>
</svg>
